<svg width="160" height="32" viewBox="0 0 160 32" fill="none" xmlns="http://www.w3.org/2000/svg" role="img" aria-label="LAKS Company (placeholder, logo real pendente)">
  <path d="M4 24V8H7.5V21H15V24H4Z" fill="#0D0900"/>
  <path d="M22 24L27.2 8H31L36.2 24H32.7L28.6 11.2L24.5 24H22Z" fill="#0D0900"/>
  <path d="M40 24V8H43.5V14.8L50 8H54.3L47.2 15.5L54.6 24H50.2L44.6 17.5L43.5 18.6V24H40Z" fill="#0D0900"/>
  <path d="M56.5 19.2H60C60.1 20.9 61.3 21.8 63.3 21.8C65.1 21.8 66.1 21.1 66.1 19.9C66.1 18.9 65.4 18.4 63.6 18L61.5 17.5C58.4 16.8 56.9 15.3 56.9 12.8C56.9 9.9 59.3 7.7 63 7.7C66.8 7.7 69.1 9.8 69.3 12.9H65.9C65.7 11.4 64.6 10.6 63 10.6C61.4 10.6 60.5 11.3 60.5 12.4C60.5 13.3 61.2 13.8 62.8 14.2L64.9 14.7C68.1 15.4 69.7 16.9 69.7 19.5C69.7 22.6 67.2 24.7 63.2 24.7C59.2 24.7 56.7 22.6 56.5 19.2Z" fill="#0D0900"/>
  <rect x="140" y="8" width="16" height="16" rx="3" fill="#FF4200"/>
</svg>
